<?xml version="1.0" encoding="UTF-8"?>
<svg version="1.1" xmlns="http://www.w3.org/2000/svg" width="512" height="512">
<path d="M0 0 C1.18478249 -0.00307895 1.18478249 -0.00307895 2.39349997 -0.0062201 C5.05037509 -0.01189184 7.7071984 -0.01043264 10.36407852 -0.00901413 C12.28413714 -0.01159766 14.20419522 -0.01461079 16.12425256 -0.01801753 C21.40871637 -0.02609211 26.69316661 -0.02787736 31.97763586 -0.028615 C37.67375523 -0.03046474 43.36986753 -0.03801164 49.06598282 -0.04475021 C61.52457043 -0.05833694 73.98315483 -0.06435868 86.44174862 -0.06876087 C94.21882 -0.07152251 101.99589013 -0.0757597 109.77296066 -0.08026505 C131.29967953 -0.09245776 152.82639678 -0.10279271 174.3531189 -0.10614014 C175.74500494 -0.10636177 177.13689098 -0.10658355 178.52877702 -0.10680549 C179.92401553 -0.10702613 181.31925405 -0.10724661 182.71449256 -0.10746694 C185.51356109 -0.10790949 188.31262962 -0.1083566 191.11169815 -0.10880661 C191.80570358 -0.108916 192.49970901 -0.10902539 193.21474491 -0.1091381 C215.72027969 -0.11276911 238.22578227 -0.12869132 260.73130472 -0.15199697 C284.52734066 -0.17659396 308.32335447 -0.19030618 332.11940408 -0.19150805 C345.09034121 -0.19242535 358.06123618 -0.1981915 371.03216171 -0.21632767 C382.07591741 -0.2317147 393.11961789 -0.23685733 404.16338226 -0.22858956 C409.79886511 -0.22467824 415.43423674 -0.22563632 421.06970596 -0.23964691 C426.22902165 -0.25235654 431.38814219 -0.2512141 436.54745749 -0.2390562 C438.41354111 -0.23709412 440.27963843 -0.24020114 442.14570281 -0.24890056 C454.64301367 -0.30347154 465.64782977 -0.12565401 475.13220596 9.13142776 C479.02424738 14.23067806 481.25250652 18.66944526 481.26922035 25.15784931 C481.27429489 26.20267414 481.27936944 27.24749897 481.28459775 28.32398516 C481.28534439 30.05157231 481.28534439 30.05157231 481.28610611 31.81406021 C481.29048836 33.03463354 481.29487062 34.25520686 481.29938567 35.51276726 C481.31045641 38.90716677 481.31700002 42.30152016 481.32156682 45.69593108 C481.32752236 49.35459998 481.33913244 53.01325189 481.34985733 56.67190933 C481.37438407 65.51171161 481.38900973 74.35151952 481.4019174 83.19134536 C481.4056294 85.68837491 481.40960264 88.1854039 481.41367006 90.68243289 C481.43890877 106.18999252 481.46096105 121.69755303 481.47339821 137.20512867 C481.47632789 140.79750509 481.47928956 144.38988149 481.48230362 147.98225784 C481.48304967 148.87512267 481.48379572 149.76798749 481.48456438 150.68790882 C481.49721367 165.14664233 481.53043063 179.60525275 481.57210545 194.06392873 C481.61454632 208.91017574 481.63809581 223.75635977 481.64331877 238.60266727 C481.64673066 246.93754424 481.65845936 255.27222891 481.69142151 263.60704613 C481.71945293 270.70672129 481.7304079 277.80616475 481.71922605 284.90589095 C481.71404704 288.52648728 481.71687583 292.14659863 481.74169159 295.76712418 C481.76841047 299.69824828 481.75609754 303.6287152 481.74020767 307.55990982 C481.75408976 308.69601954 481.76797185 309.83212925 481.7822746 311.00266653 C481.70163106 319.11191175 480.00722298 325.96004293 474.35870206 332.04057223 C467.12005239 338.68916372 459.84708264 340.28602244 450.26441193 340.26285553 C449.47455694 340.26490816 448.68470195 340.2669608 447.87091196 340.26907563 C445.21403683 340.27474737 442.55721352 340.27328817 439.9003334 340.27186966 C437.98027479 340.27445319 436.0602167 340.27746632 434.14015937 340.28087306 C428.85569555 340.28894764 423.57124532 340.29073289 418.28677607 340.29147053 C412.5906567 340.29332027 406.8945444 340.30086717 401.19842911 340.30760574 C388.73984149 340.32119247 376.2812571 340.32721421 363.82266331 340.3316164 C356.04559193 340.33437804 348.2685218 340.33861523 340.49145126 340.34312057 C318.9647324 340.35531329 297.43801515 340.36564824 275.91129303 340.36899567 C274.51940699 340.3692173 273.12752095 340.36943908 271.73563491 340.36966102 C270.34039639 340.36988166 268.94515788 340.37010214 267.54991937 340.37032247 C264.75085084 340.37076502 261.95178231 340.37121213 259.15271378 340.37166214 C258.11170563 340.37182623 258.11170563 340.37182623 257.04966701 340.37199363 C234.54413223 340.37562464 212.03862966 340.39154685 189.53310721 340.4148525 C165.73707127 340.43944949 141.94105745 340.4531617 118.14500785 340.45436358 C105.17407071 340.45528088 92.20317575 340.46104703 79.23225021 340.4791832 C68.18849452 340.49457023 57.14479404 340.49971286 46.10102966 340.49144509 C40.46554681 340.48753377 34.83017519 340.48849185 29.19470596 340.50250244 C24.03539028 340.51521207 18.87626974 340.51406963 13.71695444 340.50191173 C11.85087081 340.49994965 9.9847735 340.50305667 8.11870912 340.51175609 C-4.37860174 340.56632707 -15.38341785 340.38850954 -24.86779404 331.13142776 C-28.75983545 326.03217747 -30.9880946 321.59341027 -31.00480843 315.10500622 C-31.00988297 314.06018139 -31.01495751 313.01535656 -31.02018583 311.93887037 C-31.02068359 310.7871456 -31.02118134 309.63542084 -31.02169418 308.44879532 C-31.02607644 307.22822199 -31.03045869 306.00764867 -31.03497374 304.75008827 C-31.04604448 301.35568876 -31.0525881 297.96133537 -31.05715489 294.56692445 C-31.06311044 290.90825555 -31.07472051 287.24960364 -31.0854454 283.5909462 C-31.10997214 274.75114392 -31.1245978 265.91133601 -31.13750547 257.07151017 C-31.14121748 254.57448062 -31.14519071 252.07745163 -31.14925814 249.58042264 C-31.17449684 234.07286301 -31.19654912 218.5653025 -31.20898628 203.05772686 C-31.21191597 199.46535044 -31.21487763 195.87297404 -31.21789169 192.28059769 C-31.21863774 191.38773286 -31.21938379 190.49486804 -31.22015245 189.57494671 C-31.23280174 175.1162132 -31.26601871 160.65760278 -31.30769353 146.1989268 C-31.35013439 131.35267979 -31.37368388 116.50649576 -31.37890685 101.66018826 C-31.38231873 93.32531129 -31.39404743 84.99062662 -31.42700958 76.6558094 C-31.45504101 69.55613424 -31.46599597 62.45669078 -31.45481412 55.35696458 C-31.44963511 51.73636825 -31.4524639 48.1162569 -31.47727966 44.49573135 C-31.50399855 40.56460725 -31.49168562 36.63414033 -31.47579575 32.70294571 C-31.48967783 31.56683599 -31.50355992 30.43072628 -31.51786268 29.260189 C-31.43721913 21.15094378 -29.74281105 14.3028126 -24.09429014 8.2222833 C-16.85564046 1.57369181 -9.58267072 -0.02316691 0 0 Z " fill="#DFE4E7" transform="translate(30.867794036865234,85.86857223510742)"/>
<path d="M0 0 C2.78823237 1.28923981 4.98996602 2.68619531 7.28515625 4.72265625 C7.89262695 5.25665039 8.50009766 5.79064453 9.12597656 6.34082031 C10.08455566 7.19305176 10.08455566 7.19305176 11.0625 8.0625 C12.41174523 9.24725089 13.76201195 10.43083944 15.11328125 11.61328125 C15.77537598 12.19287598 16.4374707 12.7724707 17.11962891 13.36962891 C21.32687232 17.01750888 25.6688556 20.50126774 30 24 C35.90464126 28.79643879 41.76741213 33.63456031 47.5625 38.5625 C52.03726234 42.36559284 56.5666887 46.08066502 61.16796875 49.73046875 C67.08569379 54.47281116 72.91408867 59.32561957 78.76220703 64.15332031 C81.63689463 66.52558052 84.51396207 68.89494137 87.39135742 71.26391602 C88.79924161 72.42305281 90.20695598 73.5823959 91.61450195 74.74194336 C95.20429837 77.69919475 98.7958784 80.65423601 102.390625 83.60546875 C108.9421619 88.987271 115.47950768 94.38108818 121.9375 99.875 C126.28635274 103.5741605 130.69500943 107.18245094 135.16796875 110.73046875 C141.08000444 115.46825183 146.90232455 120.31685364 152.74462891 125.14013672 C154.96674748 126.97257873 157.19180351 128.80138335 159.41796875 130.62890625 C165.9608676 136.0023298 172.48864426 141.3888608 178.9375 146.875 C183.28137921 150.56992998 187.68511814 154.17402464 192.15234375 157.71875 C195.89786506 160.71927736 199.60676371 163.7630474 203.3125 166.8125 C204.04355957 167.41344482 204.77461914 168.01438965 205.52783203 168.63354492 C208.95810575 171.46118243 212.37135551 174.30413404 215.73828125 177.20703125 C216.60102661 177.948927 216.60102661 177.948927 217.48120117 178.70581055 C219.01543976 180.03041012 220.5431357 181.36257731 222.0703125 182.6953125 C229.55471733 188.5830443 235.4542134 190.13837952 245 189 C250.97691689 187.3763893 255.15686152 183.30710606 259.61328125 179.18359375 C263.38043203 175.73705155 267.37130574 172.57215843 271.33496094 169.35595703 C274.6099068 166.688941 277.86609129 163.99906749 281.125 161.3125 C285.55217348 157.66359472 289.97984898 154.01534944 294.4140625 150.375 C300.95792195 144.99987018 307.4872528 139.61232293 313.9375 134.125 C318.28635274 130.4258395 322.69500943 126.81754906 327.16796875 123.26953125 C333.08569379 118.52718884 338.91408867 113.67438043 344.76220703 108.84667969 C347.63689463 106.47441948 350.51396207 104.10505863 353.39135742 101.73608398 C354.79924161 100.57694719 356.20695598 99.4176041 357.61450195 98.25805664 C361.20429837 95.30080525 364.7958784 92.34576399 368.390625 89.39453125 C374.9421619 84.012729 381.47950768 78.61891182 387.9375 73.125 C392.28137921 69.43007002 396.68511814 65.82597536 401.15234375 62.28125 C410.19504833 55.03716293 419.11231126 47.63218417 427.9375 40.125 C432.28139509 36.43008666 436.68511718 32.82597613 441.15234375 29.28125 C452.26083197 20.38226904 463.16716263 11.23146141 474 2 C474.66 2.33 475.32 2.66 476 3 C462.26885135 15.82473856 462.26885135 15.82473856 456.11328125 21.13671875 C453.24048352 23.6696661 450.43438025 26.2721088 447.625 28.875 C442.12827803 33.9677137 436.58297965 39.00181691 431 44 C425.64060582 48.80527265 420.30128222 53.63064912 415 58.5 C408.90004921 64.10294652 402.74438953 69.6421281 396.578125 75.171875 C391.98551896 79.29644476 387.41820551 83.44621893 382.875 87.625 C379.63782784 90.60218281 376.38862271 93.55952856 373.0625 96.4375 C368.93244815 100.01802312 364.9339593 103.73579762 360.92480469 107.45019531 C355.99354346 112.01596642 351.00702032 116.51744662 346 121 C340.12197061 126.27028483 334.27499615 131.57232185 328.46142578 136.91357422 C324.52207454 140.5298002 320.55073735 144.10882405 316.5703125 147.6796875 C313.13976499 150.77656474 309.73880545 153.90518079 306.34228516 157.03930664 C302.81724571 160.2823659 299.21822502 163.41703379 295.5234375 166.46484375 C293.82772287 168.17360234 293.02679881 169.83917865 292 172 C292.50016129 172.32778442 293.00032257 172.65556885 293.51564026 172.99328613 C303.96904569 179.84580728 314.4147254 186.71009281 324.84765625 193.59375 C325.7877504 194.21254028 326.72784454 194.83133057 327.69642639 195.46887207 C335.30349147 200.49334192 342.78997329 205.68061826 350.24165344 210.93217468 C359.92012456 217.75171487 369.85348176 224.1909743 379.75 230.6875 C396.54958039 241.71648482 413.26448691 252.86068597 429.89892578 264.13720703 C439.22595888 270.4558326 448.5844699 276.72010364 458 282.90625 C459.96674643 284.20222215 461.9333821 285.49836239 463.89990234 286.79467773 C466.74128222 288.66754063 469.58487261 290.53639068 472.43731689 292.3923645 C475.04046496 294.0862009 477.63423123 295.7935789 480.2265625 297.50390625 C481.00346436 298.0035791 481.78036621 298.50325195 482.58081055 299.01806641 C483.63643188 299.71984009 483.63643188 299.71984009 484.71337891 300.43579102 C485.32758698 300.83685562 485.94179504 301.23792023 486.57461548 301.65113831 C488.34304017 303.3246238 488.62077241 304.63166418 489 307 C487.86747928 307.95353925 486.71790624 308.88682365 485.5625 309.8125 C484.92441406 310.33457031 484.28632813 310.85664063 483.62890625 311.39453125 C474.14916568 317.18379332 463.98132272 316.42271072 453.28710938 316.38095093 C451.36359644 316.38440941 449.44008549 316.38917525 447.51657867 316.39513266 C442.24110084 316.40764612 436.96578601 316.40147063 431.69030762 316.39217401 C425.99697775 316.38538532 420.30367587 316.39586386 414.61035156 316.40411377 C403.46114412 316.41745518 392.31199726 316.41457152 381.16278744 316.40587585 C372.10176534 316.39910133 363.04076023 316.39818158 353.97973633 316.4014473 C352.04548569 316.40213684 352.04548569 316.40213684 350.07215929 316.40284032 C347.45258267 316.4037995 344.83300606 316.40477214 342.21342945 316.4057581 C318.34865038 316.4140693 294.48390574 316.40544954 270.61913216 316.38973031 C248.83982041 316.3754938 227.06056129 316.3767677 205.28125 316.39111328 C180.80419732 316.40718197 156.32717844 316.41348921 131.85012054 316.40427649 C129.24016826 316.40332084 126.63021597 316.40237773 124.02026367 316.4014473 C122.09403254 316.40075306 122.09403254 316.40075306 120.12888765 316.40004479 C111.07851232 316.39745427 102.02815565 316.40182724 92.9777832 316.40888596 C81.94875531 316.41729879 70.91979147 316.41502532 59.89077091 316.39904372 C54.26336707 316.39115816 48.63607005 316.38807439 43.00866699 316.39799118 C37.85690296 316.4069325 32.70534473 316.40201432 27.55359936 316.38605852 C25.69033098 316.38270837 23.82704521 316.38441006 21.96378803 316.39168589 C0.57298392 316.46880502 0.57298392 316.46880502 -7.5625 309.8125 C-8.22378906 309.28269531 -8.88507812 308.75289063 -9.56640625 308.20703125 C-10.27603516 307.60955078 -10.27603516 307.60955078 -11 307 C-10.63822598 304.38409726 -10.28517648 303.25226188 -8.27711487 301.47596741 C-7.53025925 300.9967131 -6.78340363 300.5174588 -6.01391602 300.02368164 C-4.75296364 299.20062782 -4.75296364 299.20062782 -3.46653748 298.36094666 C-2.55074417 297.77906082 -1.63495087 297.19717499 -0.69140625 296.59765625 C1.24512686 295.33816765 3.18115019 294.07789492 5.11669922 292.81689453 C6.10305359 292.17907043 7.08940796 291.54124634 8.10565186 290.88409424 C12.4117177 288.08103343 16.66142736 285.19751556 20.91015625 282.30859375 C22.57203017 281.18324596 24.23414315 280.05825113 25.89648438 278.93359375 C26.73655029 278.36495605 27.57661621 277.79631836 28.44213867 277.21044922 C45.12571158 265.92226265 61.89015482 254.76564864 78.72775269 243.70874023 C95.54131362 232.66377716 112.23868983 221.45276224 128.89846802 210.17745972 C129.7183017 209.62260895 130.53813538 209.06775818 131.3828125 208.49609375 C132.19128632 207.94889679 132.99976013 207.40169983 133.83273315 206.83792114 C141.50278163 201.6511735 149.20537876 196.5139059 156.91534424 191.38674927 C160.16662733 189.22393921 163.41528942 187.05720269 166.6640625 184.890625 C167.83592355 184.10935408 169.00779827 183.32810366 170.1796875 182.546875 C170.74526367 182.16982422 171.31083984 181.79277344 171.89355469 181.40429688 C176.59570312 178.26953125 181.29785156 175.13476562 186 172 C184.59321194 168.77451847 182.93721445 166.74383125 180.3671875 164.35546875 C179.28050781 163.33936523 179.28050781 163.33936523 178.171875 162.30273438 C177.41390625 161.60470703 176.6559375 160.90667969 175.875 160.1875 C175.14023438 159.50107422 174.40546875 158.81464844 173.6484375 158.10742188 C169.45723984 154.20768954 165.19612235 150.40108438 160.87548828 146.64575195 C158.03290493 144.15136841 155.26621792 141.57838831 152.5 139 C149.03798265 135.7875331 145.57347192 132.58893335 142 129.5 C137.88639854 125.94182153 133.90904725 122.2415788 129.92016602 118.54516602 C125.8255749 114.75348353 121.69158422 111.00904537 117.53515625 107.28515625 C114.63086734 104.66726871 111.75229225 102.02246797 108.875 99.375 C105.63788971 96.39775181 102.3886208 93.44046979 99.0625 90.5625 C94.87890143 86.93787911 90.8356539 83.16614933 86.77758789 79.40258789 C83.88635872 76.72598962 80.98110596 74.07688821 78 71.5 C73.88795707 67.94316962 69.9123038 64.24416316 65.92456055 60.54956055 C60.99335742 55.98389615 56.00693471 51.48247674 51 47 C45.12350802 41.73109362 39.27854013 36.42993852 33.46582031 31.09082031 C29.47858717 27.43137512 25.46529871 23.80219115 21.4375 20.1875 C18.91239133 17.92137684 16.39383372 15.64809385 13.875 13.375 C10.12942232 9.99628774 6.33742059 6.67953503 2.49609375 3.41015625 C1 2 1 2 0 0 Z " fill="#D4D5DB" transform="translate(17,110)"/>
<path d="M0 0 C2.5 1.375 2.5 1.375 5 3 C5 3.66 5 4.32 5 5 C5.54140625 5.22300781 6.0828125 5.44601563 6.640625 5.67578125 C9.74975631 7.42080694 12.1785332 9.75313457 14.75 12.1875 C15.82488262 13.18948716 16.90040352 14.19079005 17.9765625 15.19140625 C18.49637695 15.67625488 19.01619141 16.16110352 19.55175781 16.66064453 C21.37940794 18.35088199 23.24446681 19.99392529 25.125 21.625 C29.80647543 25.68743735 34.39852658 29.84745082 39 34 C39.804375 34.721875 40.60875 35.44375 41.4375 36.1875 C46.49898636 40.72985955 51.5255904 45.30867406 56.53417969 49.90917969 C61.32574851 54.30683662 66.15810864 58.65791678 71 63 C76.87600701 68.26945145 82.72145443 73.57005648 88.53417969 78.90917969 C93.32574851 83.30683662 98.15810864 87.65791678 103 92 C108.40293305 96.84521093 113.78363904 101.71208598 119.125 106.625 C122.36217216 109.60218281 125.61137729 112.55952856 128.9375 115.4375 C133.069109 119.01937309 137.06929927 122.73837958 141.07958984 126.45458984 C145.17424371 130.2463742 149.30833007 133.99087784 153.46484375 137.71484375 C156.36913266 140.33273129 159.24770775 142.97753203 162.125 145.625 C165.36211029 148.60224819 168.6113792 151.55953021 171.9375 154.4375 C176.06231047 158.01347914 180.05977756 161.72270311 184.05761719 165.43920898 C188.32322794 169.39915498 192.67008783 173.25663891 197.07421875 177.0625 C198.98059218 178.98047408 199.86700998 180.57993583 201 183 C192.44811997 188.81589772 183.88955409 194.62189463 175.32757568 200.4229126 C173.75492912 201.48848529 172.18238118 202.55420354 170.60992432 203.62005615 C148.92224228 218.31956322 127.17003189 232.91065175 105.27032471 247.29263306 C88.45712876 258.33728085 71.76014398 269.5480134 55.10076904 280.82305908 C54.28118713 281.37773865 53.46160522 281.93241821 52.6171875 282.50390625 C51.81097961 283.04956238 51.00477173 283.59521851 50.1741333 284.15740967 C39.72951412 291.22032927 29.22933322 298.19981821 18.71875 305.1640625 C17.83832031 305.74800781 16.95789063 306.33195312 16.05078125 306.93359375 C14.28885621 308.10191464 12.52576017 309.26847082 10.76171875 310.43359375 C9.90191406 311.00464844 9.04210937 311.57570313 8.15625 312.1640625 C7.40150391 312.66373535 6.64675781 313.1634082 5.86914062 313.67822266 C3.88490277 315.00238492 3.88490277 315.00238492 2 317 C-2.66488813 309.39937045 -3.71894716 303.28200844 -3.62145996 294.45539856 C-3.62784878 293.22672756 -3.6342376 291.99805657 -3.64082003 290.73215312 C-3.65337774 287.34727176 -3.64370615 283.96381785 -3.62430525 280.5790602 C-3.60880866 276.91918999 -3.62229781 273.25940723 -3.63204956 269.59953308 C-3.64654215 262.44090607 -3.63437741 255.28256363 -3.61293632 248.12396363 C-3.58887535 239.78336194 -3.59064374 231.44282475 -3.59324223 223.10219606 C-3.59692859 208.22017135 -3.57613789 193.3382804 -3.54199219 178.45629883 C-3.50888537 164.02169415 -3.49473736 149.58722978 -3.50097656 135.15258789 C-3.50774237 119.4223037 -3.50527628 103.69207819 -3.48561716 87.96180266 C-3.48457768 87.12986848 -3.48353819 86.2979343 -3.4824672 85.44078999 C-3.48037635 83.77001125 -3.47826538 82.09923253 -3.47613403 80.42845384 C-3.46924325 74.61670914 -3.46856829 68.80498256 -3.47001648 62.99323463 C-3.47145694 55.9115858 -3.46175109 48.83005124 -3.43807012 41.7484403 C-3.42622063 38.13640644 -3.41907801 34.52453176 -3.42490768 30.9124794 C-3.43104179 26.99609042 -3.41389861 23.08000031 -3.39440918 19.16365051 C-3.39973711 18.02357711 -3.40506503 16.88350371 -3.41055441 15.70888263 C-3.35878375 9.69080292 -2.86885309 5.32755345 0 0 Z " fill="#EAEEF1" transform="translate(3,99)"/>
<path d="M0 0 C3.19360912 4.02672454 4.12385065 6.91618473 4.13701439 12.02642155 C4.14208893 13.07124638 4.14716347 14.11607121 4.15239179 15.19255739 C4.15288955 16.34428216 4.15338731 17.49600693 4.15390015 18.68263245 C4.16047353 20.51349243 4.16047353 20.51349243 4.1671797 22.38133949 C4.17825044 25.775739 4.18479406 29.17009239 4.18936086 32.56450331 C4.1953164 36.22317222 4.20692647 39.88182413 4.21765137 43.54048157 C4.24217811 52.38028385 4.25680376 61.22009176 4.26971143 70.0599176 C4.27342344 72.55694715 4.27739667 75.05397613 4.2814641 77.55100513 C4.3067028 93.05856475 4.32875508 108.56612527 4.34119225 124.0737009 C4.34412193 127.66607733 4.34708359 131.25845372 4.35009766 134.85083008 C4.35084371 135.7436949 4.35158976 136.63655972 4.35235842 137.55648106 C4.36500771 152.01521457 4.39822467 166.47382498 4.43989949 180.93250097 C4.48234036 195.77874797 4.50588984 210.624932 4.51111281 225.47123951 C4.5145247 233.80611647 4.5262534 242.14080115 4.55921555 250.47561836 C4.58724697 257.57529353 4.59820194 264.67473698 4.58702008 271.77446318 C4.58184107 275.39505951 4.58466987 279.01517086 4.60948563 282.63569641 C4.63620451 286.56682052 4.62389158 290.49728743 4.60800171 294.42848206 C4.6218838 295.56459177 4.63576588 296.70070149 4.65006864 297.87123877 C4.57548837 305.37078164 2.92741232 310.60724886 -1 317 C-1.52497322 316.60036985 -2.04994644 316.20073971 -2.59082794 315.78899956 C-7.50281807 312.05832129 -12.5246057 308.53359485 -17.640625 305.08984375 C-18.46342957 304.53394058 -19.28623413 303.97803741 -20.13397217 303.4052887 C-22.83763992 301.58019487 -25.54365996 299.75862848 -28.25 297.9375 C-29.19149902 297.30295898 -30.13299805 296.66841797 -31.10302734 296.01464844 C-46.25107729 285.80745145 -61.47805526 275.72454259 -76.74533081 265.69683838 C-92.29705589 255.47950129 -107.74817355 245.12041413 -123.16088867 234.69482422 C-135.34495522 226.45459676 -147.56546831 218.27132575 -159.8125 210.125 C-173.27026309 201.17234851 -186.68652666 192.1665016 -200 183 C-196.77804153 176.28715417 -190.85625112 171.8070851 -185.29296875 167.0078125 C-182.53094206 164.58927465 -179.82598859 162.11112266 -177.125 159.625 C-173.43460926 156.22949427 -169.73294545 152.84884817 -166 149.5 C-162.3116951 146.18998278 -158.64934235 142.852855 -155 139.5 C-148.90012856 133.89696824 -142.74438837 128.35787086 -136.578125 122.828125 C-132.02949804 118.74305238 -127.50259936 114.63574212 -123 110.5 C-116.90004921 104.89705348 -110.74438953 99.3578719 -104.578125 93.828125 C-99.98551896 89.70355524 -95.41820551 85.55378107 -90.875 81.375 C-87.63782784 78.39781719 -84.38862271 75.44047144 -81.0625 72.5625 C-76.93244815 68.98197688 -72.9339593 65.26420238 -68.92480469 61.54980469 C-63.99354346 56.98403358 -59.00702032 52.48255338 -54 48 C-48.64060045 43.19472253 -43.30167058 38.36893279 -38 33.5 C-36.00054004 31.66607614 -34.0003318 29.83297336 -32 28 C-31.14277344 27.21367188 -30.28554688 26.42734375 -29.40234375 25.6171875 C-24.34383335 21.01562654 -19.14505661 16.65068149 -13.828125 12.3515625 C-9.07126679 8.39627432 -4.5374807 4.20397148 0 0 Z " fill="#EAEEF1" transform="translate(508,99)"/>
<path d="M0 0 C2.78823237 1.28923981 4.98996602 2.68619531 7.28515625 4.72265625 C7.89262695 5.25665039 8.50009766 5.79064453 9.12597656 6.34082031 C9.7650293 6.90897461 10.40408203 7.47712891 11.0625 8.0625 C12.41174523 9.24725089 13.76201195 10.43083944 15.11328125 11.61328125 C15.77537598 12.19287598 16.4374707 12.7724707 17.11962891 13.36962891 C21.32687232 17.01750888 25.6688556 20.50126774 30 24 C35.90464126 28.79643879 41.76741213 33.63456031 47.5625 38.5625 C52.03726234 42.36559284 56.5666887 46.08066502 61.16796875 49.73046875 C67.08569379 54.47281116 72.91408867 59.32561957 78.76220703 64.15332031 C81.63689463 66.52558052 84.51396207 68.89494137 87.39135742 71.26391602 C88.79924161 72.42305281 90.20695598 73.5823959 91.61450195 74.74194336 C95.20429837 77.69919475 98.7958784 80.65423601 102.390625 83.60546875 C108.9421619 88.987271 115.47950768 94.38108818 121.9375 99.875 C126.28635274 103.5741605 130.69500943 107.18245094 135.16796875 110.73046875 C141.08000444 115.46825183 146.90232455 120.31685364 152.74462891 125.14013672 C154.96674748 126.97257873 157.19180351 128.80138335 159.41796875 130.62890625 C165.9608676 136.0023298 172.48864426 141.3888608 178.9375 146.875 C183.28137921 150.56992998 187.68511814 154.17402464 192.15234375 157.71875 C195.89786506 160.71927736 199.60676371 163.7630474 203.3125 166.8125 C204.04355957 167.41344482 204.77461914 168.01438965 205.52783203 168.63354492 C208.95810575 171.46118243 212.37135551 174.30413404 215.73828125 177.20703125 C216.60102661 177.948927 216.60102661 177.948927 217.48120117 178.70581055 C219.01543976 180.03041012 220.5431357 181.36257731 222.0703125 182.6953125 C229.55471733 188.5830443 235.4542134 190.13837952 245 189 C250.97691689 187.3763893 255.15686152 183.30710606 259.61328125 179.18359375 C263.38043203 175.73705155 267.37130574 172.57215843 271.33496094 169.35595703 C274.6099068 166.688941 277.86609129 163.99906749 281.125 161.3125 C285.55217348 157.66359472 289.97984898 154.01534944 294.4140625 150.375 C300.95792195 144.99987018 307.4872528 139.61232293 313.9375 134.125 C318.28635274 130.4258395 322.69500943 126.81754906 327.16796875 123.26953125 C333.08569379 118.52718884 338.91408867 113.67438043 344.76220703 108.84667969 C347.63689463 106.47441948 350.51396207 104.10505863 353.39135742 101.73608398 C354.79924161 100.57694719 356.20695598 99.4176041 357.61450195 98.25805664 C361.20429837 95.30080525 364.7958784 92.34576399 368.390625 89.39453125 C374.9421619 84.012729 381.47950768 78.61891182 387.9375 73.125 C392.28137921 69.43007002 396.68511814 65.82597536 401.15234375 62.28125 C410.19504833 55.03716293 419.11231126 47.63218417 427.9375 40.125 C432.28139509 36.43008666 436.68511718 32.82597613 441.15234375 29.28125 C452.26083197 20.38226904 463.16716263 11.23146141 474 2 C474.66 2.33 475.32 2.66 476 3 C462.26885135 15.82473856 462.26885135 15.82473856 456.11328125 21.13671875 C453.24048352 23.6696661 450.43438025 26.2721088 447.625 28.875 C442.12827803 33.9677137 436.58297965 39.00181691 431 44 C425.64060582 48.80527265 420.30128222 53.63064912 415 58.5 C408.90004921 64.10294652 402.74438953 69.6421281 396.578125 75.171875 C391.98551896 79.29644476 387.41820551 83.44621893 382.875 87.625 C379.63782784 90.60218281 376.38862271 93.55952856 373.0625 96.4375 C368.93244815 100.01802312 364.9339593 103.73579762 360.92480469 107.45019531 C355.99354346 112.01596642 351.00702032 116.51744662 346 121 C340.12197061 126.27028483 334.27499615 131.57232185 328.46142578 136.91357422 C324.52207454 140.5298002 320.55073735 144.10882405 316.5703125 147.6796875 C313.65571526 150.31079807 310.76462591 152.96654417 307.875 155.625 C304.6161367 158.62184414 301.34500325 161.59914656 298 164.5 C292.56297478 169.21807973 287.29466408 174.12367975 282 179 C269.86049604 190.18033327 269.86049604 190.18033327 264.00390625 195.2421875 C260.7482657 198.09801254 257.57506685 201.04533403 254.39453125 203.984375 C249.45681194 208.14075863 245.1645217 210.09329872 238.75 210.3125 C237.69039063 210.36857422 237.69039063 210.36857422 236.609375 210.42578125 C228.80262363 209.15192511 223.44695503 204.05466565 218 198.6875 C216.66796737 197.39839421 215.33463522 196.11062984 214 194.82421875 C213.34209473 194.18806641 212.68418945 193.55191406 212.00634766 192.89648438 C209.36947477 190.40400098 206.64039893 188.02900966 203.89746094 185.65454102 C201.08562005 183.20268233 198.35521054 180.66694967 195.625 178.125 C190.12956686 173.03091425 184.58295277 167.99815902 179 163 C173.12350802 157.73109362 167.27854013 152.42993852 161.46582031 147.09082031 C156.67425149 142.69316338 151.84189136 138.34208322 147 134 C141.12245558 128.72916984 135.27500173 123.42768328 129.46142578 118.08642578 C125.52207454 114.4701998 121.55073735 110.89117595 117.5703125 107.3203125 C114.65571553 104.68920217 111.76460776 102.03347525 108.875 99.375 C105.63786909 96.3977736 102.38862144 93.44047034 99.0625 90.5625 C94.87890143 86.93787911 90.8356539 83.16614933 86.77758789 79.40258789 C83.88635872 76.72598962 80.98110596 74.07688821 78 71.5 C73.88795707 67.94316962 69.9123038 64.24416316 65.92456055 60.54956055 C60.99335742 55.98389615 56.00693471 51.48247674 51 47 C45.12350802 41.73109362 39.27854013 36.42993852 33.46582031 31.09082031 C29.47858717 27.43137512 25.46529871 23.80219115 21.4375 20.1875 C18.91239133 17.92137684 16.39383372 15.64809385 13.875 13.375 C10.12942232 9.99628774 6.33742059 6.67953503 2.49609375 3.41015625 C1 2 1 2 0 0 Z " fill="#677B8B" transform="translate(17,110)"/>
<path d="M0 0 C0.66 0.33 1.32 0.66 2 1 C-12.54491755 14.58478956 -12.54491755 14.58478956 -20 21 C-21.50096479 22.31139657 -23.00097107 23.62389103 -24.5 24.9375 C-25.66666667 25.95833333 -26.83333333 26.97916667 -28 28 C-28 24.46665115 -27.00099106 23.31083618 -24.7265625 20.71875 C-21.98776943 17.99234966 -18.96128316 15.67135321 -15.9140625 13.30078125 C-12.50264422 10.60731561 -9.18586615 7.81541479 -5.875 5 C-5.29427734 4.50669189 -4.71355469 4.01338379 -4.11523438 3.50512695 C-2.74253241 2.33787602 -1.37112165 1.16910686 0 0 Z " fill="#6F8291" transform="translate(491,112)"/>
<path d="M0 0 C2.84258606 1.31238168 5.09408245 2.76707176 7.453125 4.8203125 C8.071875 5.35527344 8.690625 5.89023438 9.328125 6.44140625 C9.96234375 6.99699219 10.5965625 7.55257812 11.25 8.125 C11.8996875 8.68832031 12.549375 9.25164062 13.21875 9.83203125 C14.815727 11.21764364 16.40830122 12.60832754 18 14 C17.34 14.66 16.68 15.32 16 16 C15.5875 15.57589844 15.175 15.15179688 14.75 14.71484375 C10.85824049 10.7622755 6.84154834 7.05744522 2.6015625 3.48046875 C1 2 1 2 0 0 Z " fill="#8495A2" transform="translate(17,110)"/>
<path d="M0 0 C0.66 0.33 1.32 0.66 2 1 C-4.93 7.435 -4.93 7.435 -12 14 C-12.66 13.34 -13.32 12.68 -14 12 C-9.38 8.04 -4.76 4.08 0 0 Z " fill="#7F909E" transform="translate(491,112)"/>
</svg>
