<?xml version="1.0" encoding="UTF-8"?>
<svg version="1.1" xmlns="http://www.w3.org/2000/svg" width="512" height="512">
<path d="M0 0 C33.81314816 30.4835465 54.43758343 75.64903344 60.12451172 120.43359375 C61.55455472 135.10322545 61.55455472 135.10322545 69.87451172 146.69140625 C81.3936411 157.16850913 87.44724327 176.28966641 88.41796875 191.48925781 C89.44079898 216.64488997 83.50501711 237.51088865 68.24951172 257.8515625 C69.21888672 258.7384375 70.18826172 259.6253125 71.18701172 260.5390625 C87.57415513 276.99255062 95.95819922 299.63043498 96.56201172 322.6015625 C96.10244994 348.42318983 85.45695031 370.44642665 67.08154297 388.3984375 C49.03555541 404.02999638 27.2805648 410.00801804 3.82873535 409.99200439 C2.45570019 409.99459072 1.08266578 409.99760463 -0.2903676 410.0010078 C-4.05372241 410.00904978 -7.81705811 410.0108658 -11.58042049 410.01160526 C-15.64334051 410.01346074 -19.70625072 410.02101063 -23.76916504 410.02774048 C-32.6496384 410.04130505 -41.53010723 410.04734578 -50.41058922 410.05175114 C-55.96017426 410.05451709 -61.50975756 410.05875513 -67.05934143 410.06325531 C-82.43716065 410.07544621 -97.81497848 410.08574543 -113.19280243 410.0891304 C-114.17646531 410.08934997 -115.16012819 410.08956953 -116.17359903 410.08979575 C-117.15956307 410.09001403 -118.14552711 410.09023231 -119.16136885 410.0904572 C-121.15917428 410.09090066 -123.15697972 410.09134722 -125.15478516 410.09179688 C-126.14575732 410.0920183 -127.13672949 410.09223973 -128.15773112 410.09246787 C-144.20355882 410.0964132 -160.24934103 410.11385994 -176.29515117 410.1371564 C-192.78571798 410.16090445 -209.276262 410.17333385 -225.76684618 410.17449832 C-235.01894134 410.17541321 -244.27097725 410.18111848 -253.52305603 410.19931793 C-261.40381587 410.21476569 -269.28449815 410.21981196 -277.16527027 410.21157983 C-281.18131411 410.20768963 -285.19720196 410.20852248 -289.21322632 410.22263718 C-292.8998649 410.2354749 -296.58623187 410.2340933 -300.2728706 410.22204646 C-302.21695242 410.21919718 -304.16103938 410.23095003 -306.10508299 410.24346852 C-324.89157598 410.13934762 -343.54166257 405.1231922 -358.75048828 393.8515625 C-359.72501953 393.13355469 -360.69955078 392.41554688 -361.70361328 391.67578125 C-379.46929353 377.75933172 -391.18250106 357.67321308 -394.43408203 335.234375 C-396.69447192 311.0677374 -391.7633667 288.27636598 -376.75048828 268.8515625 C-374.33184476 266.00267183 -371.81439548 263.25615306 -369.20483398 260.58129883 C-366.53228338 258.16297049 -366.53228338 258.16297049 -365.75048828 254.8515625 C-366.69948378 253.37745616 -367.65504555 251.90708309 -368.64648438 250.46118164 C-382.32518546 230.45940995 -387.01425933 206.71822014 -382.72070312 182.83178711 C-379.61146192 168.08468512 -372.58490186 151.04376341 -360.71386719 141.1550293 C-358.06927371 138.05235092 -357.84985973 135.59507304 -357.25830078 131.578125 C-357.14728027 130.86644165 -357.03625977 130.1547583 -356.921875 129.42150879 C-356.68445573 127.89837158 -356.4535463 126.37420787 -356.22857666 124.84918213 C-355.63390513 120.85321561 -354.9755176 116.86801053 -354.31298828 112.8828125 C-354.18240021 112.09576935 -354.05181213 111.3087262 -353.91726685 110.49783325 C-347.83927098 74.55659567 -332.07843478 38.66007367 -306.85595703 12.07421875 C-305.17516972 10.29988113 -303.63302278 8.51978745 -302.12548828 6.6015625 C-298.96422153 2.94114837 -295.47543714 -0.07284581 -291.75048828 -3.1484375 C-290.76177734 -3.97472656 -289.77306641 -4.80101562 -288.75439453 -5.65234375 C-218.18720432 -63.53459002 -98.16885901 -66.73462835 0 0 Z " fill="#9A4D1A" transform="translate(403.75048828125,76.1484375)"/>
<path d="M0 0 C1.95134751 2.43379987 3.89820317 4.87030169 5.82421875 7.32421875 C10.64843457 13.44298305 15.68029967 19.30667524 21 25 C21.77085937 25.825 22.54171875 26.65 23.3359375 27.5 C49.05924913 54.13902822 89.26559599 74.29719119 126.5065918 76.17700195 C143.39989599 76.45734703 159.60212994 76.65762869 176 72 C176.70318359 71.80744629 177.40636719 71.61489258 178.13085938 71.41650391 C186.98770191 68.95558457 195.49565663 65.73611608 203.98828125 62.234375 C205.96641975 61.42362044 207.971868 60.676044 210 60 C210.61746094 60.88300781 211.23492187 61.76601562 211.87109375 62.67578125 C231.43349403 90.48400603 252.72094106 109.50334887 285 121 C283.37279003 124.49641528 281.30473582 127.59413962 279.1875 130.8125 C274.72818782 137.81506907 272.25650468 145.02959934 270 153 C269.72953857 153.89984619 269.72953857 153.89984619 269.45361328 154.81787109 C268.38888166 159.93981469 268.81518107 165.35318058 268.8125 170.5625 C268.80025391 171.78775391 268.78800781 173.01300781 268.77539062 174.27539062 C268.75824422 185.00332254 270.02526437 194.48684382 274.0625 204.4375 C278.30511598 215.17121669 278.30511598 215.17121669 277.23413086 218.08032227 C276.81526611 218.81822998 276.39640137 219.5561377 275.96484375 220.31640625 C275.25642334 221.57203369 275.25642334 221.57203369 274.53369141 222.85302734 C274.00694824 223.74715332 273.48020508 224.6412793 272.9375 225.5625 C272.39528809 226.49271973 271.85307617 227.42293945 271.29443359 228.38134766 C262.31438395 243.48636985 251.76390429 256.9953233 239.45263672 269.51220703 C238.25907652 270.73465339 237.09578037 271.9865774 235.94140625 273.24609375 C207.80003491 303.39308621 164.9451462 319.79444942 125 325 C123.72874268 325.1750708 122.45748535 325.3501416 121.14770508 325.53051758 C114.38111189 326.36821732 107.55834349 326.24457371 100.75 326.25 C99.99022858 326.25067474 99.23045715 326.25134949 98.44766235 326.25204468 C86.38165142 326.23504381 74.82648571 325.54453146 63 323 C62.15759766 322.82839355 61.31519531 322.65678711 60.44726562 322.47998047 C22.98921716 314.75788094 -9.61179332 296.51813934 -37 270 C-37.74765625 269.29230469 -38.4953125 268.58460938 -39.265625 267.85546875 C-52.24190081 255.31343839 -62.84759086 239.90916173 -71.8125 224.3125 C-72.25134521 223.57056396 -72.69019043 222.82862793 -73.14233398 222.06420898 C-74.9473632 218.81974953 -76.01359293 216.7485821 -75.9453125 212.98828125 C-74.75873213 209.23731438 -73.45208714 205.55495566 -72.0625 201.875 C-64.9154184 182.16234183 -64.80672813 160.52224037 -73 141 C-76.44553966 133.87921803 -80.33811539 127.37310812 -85 121 C-84.26064209 120.51756836 -84.26064209 120.51756836 -83.50634766 120.02539062 C-70.48333648 111.50344819 -58.41224334 102.62129578 -47 92 C-46.32195312 91.37609375 -45.64390625 90.7521875 -44.9453125 90.109375 C-21.80763663 67.99384546 -6.51100868 34.78671329 -1.4375 3.46484375 C-1 1 -1 1 0 0 Z " fill="#FEBF8C" transform="translate(155,137)"/>
<path d="M0 0 C1.000383 -0.00525696 2.00076599 -0.01051392 3.03146362 -0.01593018 C6.33941237 -0.02913822 9.64688031 -0.02038968 12.95483398 -0.01025391 C15.25121656 -0.01227424 17.54759851 -0.01518534 19.84397888 -0.01895142 C24.65662749 -0.02337574 29.46910908 -0.01693949 34.28173828 -0.00292969 C40.45818894 0.0141717 46.63424881 0.0043154 52.81068516 -0.01364708 C57.55208801 -0.02447369 62.29339778 -0.02104388 67.03480339 -0.0132637 C69.31264225 -0.01125909 71.59048949 -0.01373007 73.86831856 -0.02070236 C77.04785772 -0.02829928 80.22675854 -0.01673737 83.40625 0 C84.35230606 -0.00607269 85.29836212 -0.01214539 86.27308655 -0.0184021 C87.13808777 -0.00994263 88.00308899 -0.00148315 88.89430237 0.00723267 C89.64589913 0.00836374 90.3974959 0.00949482 91.17186832 0.01066017 C93.72256341 0.50032101 94.60117273 1.31894192 96.13842773 3.38818359 C97.19803751 12.01643464 93.99792392 19.17420974 88.95092773 26.07568359 C79.63011225 37.32015674 65.80676664 44.53002201 51.33325195 46.1875 C31.30781442 48.01852443 14.14901554 44.30941348 -1.79125977 31.36865234 C-8.55741106 24.89612648 -13.74635565 16.55822811 -14.29907227 7.07568359 C-13.86157227 3.38818359 -13.86157227 3.38818359 -12.45057678 1.68197632 C-8.4017181 -0.34134341 -4.46546876 -0.02872511 0 0 Z " fill="#FFFEFD" transform="translate(214.861572265625,365.61181640625)"/>
<path d="M0 0 C5.9081381 4.65622779 9.78444928 10.46810783 11.328125 17.8828125 C11.79939809 24.90230117 8.80738846 31.16851248 4.27734375 36.41796875 C2.55344014 38.01328281 0.8185926 39.31177519 -1.1484375 40.59375 C-1.77105469 41.00625 -2.39367187 41.41875 -3.03515625 41.84375 C-10.03354322 45.68286514 -18.39715313 45.82887647 -26.1484375 44.59375 C-34.19344784 42.12529218 -40.14244337 38.07256637 -44.1484375 30.59375 C-47.17554834 24.13102547 -47.0643654 17.53436062 -44.9609375 10.78125 C-40.68436998 3.26038988 -35.58753501 -1.25537499 -27.2890625 -4.02734375 C-17.9443039 -5.68143423 -8.05279034 -5.27091731 0 0 Z " fill="#FF9878" transform="translate(168.1484375,320.40625)"/>
<path d="M0 0 C5.44045787 3.81418849 9.25479239 8.11945167 10.53515625 14.77734375 C11.46504338 22.82787344 10.35287025 29.14425926 5.53515625 35.77734375 C-0.78802477 42.04761112 -8.23947236 45.20681582 -17.15234375 45.33984375 C-25.82787654 45.30052865 -32.88476571 42.85647575 -39.46484375 36.99609375 C-45.18140063 30.72986794 -46.02772462 24.6418324 -45.9140625 16.30078125 C-45.0848048 9.7965165 -41.64420203 6.01723976 -37.21484375 1.46484375 C-25.30999361 -5.8404052 -12.40511093 -7.09579024 0 0 Z " fill="#FF9878" transform="translate(379.46484375,320.22265625)"/>
<path d="M0 0 C5.68693781 2.96346851 8.83340167 7.26609295 11.9375 12.75 C14.00028374 19.51134672 13.98861307 25.12032972 11.0625 31.625 C7.43244213 38.17354189 2.26062847 43.13495965 -4.9375 45.4375 C-12.40068156 46.32278774 -18.73328288 45.86288564 -24.9375 41.4375 C-29.53228804 37.57370096 -34.38297431 31.55683368 -35.2109375 25.40625 C-35.50075037 18.36156784 -33.98701296 13.23500416 -29.9375 7.4375 C-21.63745255 -1.454234 -11.84635005 -4.69421694 0 0 Z " fill="#9B4E1B" transform="translate(352.9375,261.5625)"/>
<path d="M0 0 C6.34441569 3.90841991 10.87604297 9.92109765 13.2265625 16.97265625 C14.21756235 24.6882979 12.66134263 30.59298459 8.2265625 36.97265625 C3.44450067 42.28496723 -1.08017633 45.51707003 -8.30859375 46.21875 C-15.86883684 46.56192472 -21.07394262 45.3371868 -26.71484375 40.20703125 C-31.92637639 34.67997784 -34.30753273 29.58341821 -35.2734375 22.09765625 C-34.98021317 15.87885688 -31.98300439 10.34848758 -27.80078125 5.8515625 C-19.84964683 -1.29702751 -10.41420555 -3.85765642 0 0 Z " fill="#9B4E1B" transform="translate(180.7734375,261.02734375)"/>
</svg>
